<svg width="128" height="128" viewBox="-16 -16 128 128" xmlns="http://www.w3.org/2000/svg" xmlns:svg="http://www.w3.org/2000/svg">

  <rect x="24" y="0" width="24" height="96" fill="#8F8" />
  <rect x="0" y="0" width="48" height="96" fill="#8F8" rx="3"/>

  <rect x="48" y="0" width="24" height="96" fill="#F88" />
  <rect x="48" y="0" width="48" height="96" fill="#F88" rx="3" />

  <g fill="#00F">
    <rect x="3" y="33" width="6" height="30" rx="1.5" />
    <rect x="12" y="24" width="6" height="48" rx="1.5" />
    <rect x="21" y="9" width="6" height="78" rx="1.5" />
    <rect x="30" y="18" width="6" height="60" rx="1.5" />
    <rect x="39" y="30" width="6" height="36" rx="1.5" />

    <rect x="51" y="45" width="6" height="6" rx="1.5" />
    <rect x="60" y="42" width="6" height="12" rx="1.5" />
    <rect x="69" y="45" width="6" height="6" rx="1.5" />
    <rect x="78" y="45" width="6" height="6" rx="1.5" />
    <rect x="87" y="42" width="6" height="12" rx="1.5" />
  </g>
</svg>
