<svg width="32" height="32" xmlns="http://www.w3.org/2000/svg" xmlns:svg="http://www.w3.org/2000/svg">

  <rect x="8" y="0" width="8" height="32" fill="#8F8" />
  <rect x="0" y="0" width="16" height="32" fill="#8F8" rx="4"/>

  <rect x="16" y="0" width="8" height="32" fill="#F88" />
  <rect x="16" y="0" width="16" height="32" fill="#F88" rx="4"/>

  <g fill="#00F">
    <rect x="1" y="11" width="2" height="10" rx="0.5" />
    <rect x="4" y="8" width="2" height="16" rx="0.5" />
    <rect x="7" y="3" width="2" height="26" rx="0.5" />
    <rect x="10" y="6" width="2" height="20" rx="0.5" />
    <rect x="13" y="10" width="2" height="12" rx="0.5" />

    <rect x="17" y="15" width="2" height="2" rx="0.5" />
    <rect x="20" y="14" width="2" height="4" rx="0.5" />
    <rect x="23" y="15" width="2" height="2" rx="0.5" />
    <rect x="26" y="15" width="2" height="2" rx="0.5" />
    <rect x="29" y="14" width="2" height="4" rx="0.5" />
  </g>
</svg>
